#!OML:ASF E:\motion texture\Top Level 1\Subject 1\Session 1\male.ASF
:FULLY-SPECIFIED
:DEGREES
453
root -6.34677 17.8477 5.91199 103.587 -86.2472 -100.089
lowerback 0.321759 1.12216 -0.680675
upperback -2.29633 1.49755 1.6358
thorax -2.59801 0.771018 2.02255
lowerneck -11.1109 -10.6841 -12.1772
upperneck 5.15392 -15.6563 23.9245
head 6.46288 -6.94682 8.02767
rclavicle -6.24153e-015 -3.97569e-016
rhumerus -13.6704 46.1457 -64.1053
rradius 59.6443
rwrist -23.1773
rhand -4.65488 -44.9688
rfingers 7.12502
rthumb 21.125 -73.8379
lclavicle -6.24153e-015 -3.97569e-016
lhumerus -43.5411 38.687 58.5802
lradius 17.3297
lwrist -49.5242
lhand -10.6396 20.4534
lfingers 7.12502
lthumb 15.3677 49.8623
rfemur -22.9512 -6.19266 23.0814
rtibia 61.571
rfoot 0.534517 -15.6071
rtoes 5.82539
lfemur -17.0033 1.32018 -15.1406
ltibia 24.3694
lfoot -8.49898 1.10887
ltoes -0.0356769
454
root -6.47418 17.8616 5.92983 102.525 -86.3934 -99.056
lowerback 0.368592 1.04357 -0.742682
upperback -2.32323 1.39172 1.63107
thorax -2.64918 0.719894 2.0543
lowerneck -11.1075 -10.6583 -12.0973
upperneck 5.1122 -15.6557 24.0617
head 6.45813 -6.94426 8.06136
rclavicle 6.31297e-015 2.11706e-014
rhumerus -11.7781 46.0206 -61.5921
rradius 61.4569
rwrist -23.1872
rhand -4.70884 -45.8225
rfingers 7.12502
rthumb 21.0731 -74.6975
lclavicle 6.31297e-015 2.11706e-014
lhumerus -43.0549 37.983 59.2428
lradius 17.6234
lwrist -48.386
lhand -10.8696 20.4176
lfingers 7.12502
lthumb 15.1461 49.8433
rfemur -23.7401 -6.49595 22.9699
rtibia 61.3042
rfoot 0.27259 -15.7692
rtoes 6.03532
lfemur -16.2653 1.28794 -15.3946
ltibia 23.9573
lfoot -8.7272 1.10497
ltoes -0.0534439
455
root -6.60043 17.8752 5.94719 101.243 -86.5337 -97.7926
lowerback 0.413885 0.963174 -0.78903
upperback -2.35357 1.28364 1.62952
thorax -2.70246 0.667371 2.08081
lowerneck -11.107 -10.6343 -12.0134
upperneck 5.08448 -15.6607 24.1965
head 6.45867 -6.94361 8.09269
rclavicle 7.92188e-015 1.42131e-014
rhumerus -9.69753 45.6079 -58.9415
rradius 63.2522
rwrist -23.1913
rhand -4.85383 -46.7422
rfingers 7.12502
rthumb 20.9338 -75.6326
lclavicle 7.92188e-015 1.42131e-014
lhumerus -42.5571 37.2512 59.9367
lradius 17.9432
lwrist -47.2179
lhand -11.106 20.3846
lfingers 7.12502
lthumb 14.9183 49.8274
rfemur -24.4993 -6.78918 22.8644
rtibia 60.9041
rfoot -0.0324505 -15.9177
rtoes 6.20989
lfemur -15.535 1.24704 -15.64
ltibia 23.5277
lfoot -8.9459 1.11335
ltoes -0.0909557
456
root -6.72565 17.8882 5.96407 99.7115 -86.6675 -96.2703
lowerback 0.456267 0.881281 -0.819941
upperback -2.38729 1.17376 1.63094
thorax -2.7571 0.613655 2.10198
lowerneck -11.1076 -10.6126 -11.9247
upperneck 5.06937 -15.672 24.3277
head 6.46367 -6.94535 8.12101
rclavicle 9.25902e-015 2.50469e-014
rhumerus -7.47299 44.897 -56.2115
rradius 65.0162
rwrist -23.2019
rhand -5.0534 -47.7421
rfingers 7.12502
rthumb 20.7421 -76.6535
lclavicle 9.25902e-015 2.50469e-014
lhumerus -42.0556 36.5056 60.6464
lradius 18.2851
lwrist -46.0418
lhand -11.3489 20.3517
lfingers 7.12502
lthumb 14.6843 49.8117
rfemur -25.2274 -7.07199 22.7631
rtibia 60.3731
rfoot -0.375376 -16.0495
rtoes 6.35866
lfemur -14.8142 1.19713 -15.8774
ltibia 23.0839
lfoot -9.15711 1.12766
ltoes -0.142089
457
root -6.84993 17.9007 5.98046 97.8923 -86.794 -94.4497
lowerback 0.496834 0.798248 -0.835632
upperback -2.42487 1.06258 1.63545
thorax -2.81429 0.559004 2.11802
lowerneck -11.108 -10.5936 -11.833
upperneck 5.06626 -15.69 24.4561
head 6.47308 -6.94977 8.14699
rclavicle 2.45996e-015 7.95139e-015
rhumerus -5.15404 43.8795 -53.4652
rradius 66.7332
rwrist -23.2172
rhand -5.34279 -48.7911
rfingers 7.12502
rthumb 20.464 -77.7327
lclavicle 2.45996e-015 7.95139e-015
lhumerus -41.5547 35.7434 61.3695
lradius 18.6502
lwrist -44.856
lhand -11.5913 20.3243
lfingers 7.12502
lthumb 14.4508 49.8012
rfemur -25.9229 -7.34419 22.6646
rtibia 59.7147
rfoot -0.742239 -16.1658
rtoes 6.48425
lfemur -14.1039 1.1373 -16.1069
ltibia 22.6293
lfoot -9.36205 1.14735
ltoes -0.206836
458
root -6.9734 17.9125 5.99629 95.7195 -86.9121 -92.2649
lowerback 0.533237 0.713563 -0.837026
upperback -2.46514 0.949438 1.64312
thorax -2.87157 0.503072 2.12959
lowerneck -11.1064 -10.5769 -11.7378
upperneck 5.07177 -15.7137 24.5818
head 6.48529 -6.95664 8.1707
rclavicle 1.40838e-015 -8.30547e-015
rhumerus -2.78518 42.5572 -50.761
rradius 68.3901
rwrist -23.2465
rhand -5.7062 -49.8924
rfingers 7.12502
rthumb 20.1148 -78.8711
lclavicle 1.40838e-015 -8.30547e-015
lhumerus -41.0601 34.9945 62.0847
lradius 19.0286
lwrist -43.6954
lhand -11.8371 20.2986
lfingers 7.12502
lthumb 14.214 49.7922
rfemur -26.5846 -7.60592 22.5671
rtibia 58.9322
rfoot -1.13154 -16.264
rtoes 6.57243
lfemur -13.406 1.06602 -16.3285
ltibia 22.167
lfoot -9.56014 1.17162
ltoes -0.278463
459
root -7.09601 17.9237 6.01166 93.2304 -87.0217 -89.7524
lowerback 0.566299 0.628784 -0.824673
upperback -2.50821 0.836432 1.65335
thorax -2.92967 0.446902 2.13628
lowerneck -11.1088 -10.5642 -11.6415
upperneck 5.09141 -15.7455 24.7042
head 6.50365 -6.96645 8.19177
rclavicle 2.42968e-015 6.78353e-015
rhumerus -0.408189 40.9304 -48.1579
rradius 69.9693
rwrist -23.2822
rhand -6.15257 -51.0328
rfingers 7.12502
rthumb 19.6857 -80.0561
lclavicle 2.42968e-015 6.78353e-015
lhumerus -40.57 34.2455 62.8007
lradius 19.4246
lwrist -42.5476
lhand -12.0867 20.2733
lfingers 7.12502
lthumb 13.9734 49.7837
rfemur -27.2152 -7.85488 22.4677
rtibia 58.0332
rfoot -1.53079 -16.3406
rtoes 6.63372
lfemur -12.7227 0.984624 -16.5447
ltibia 21.6994
lfoot -9.75178 1.20222
ltoes -0.36078
460
root -7.21789 17.9341 6.02645 90.3553 -87.1204 -86.8428
lowerback 0.596236 0.543359 -0.799535
upperback -2.55479 0.722835 1.66655
thorax -2.98948 0.390151 2.13908
lowerneck -11.1112 -10.5548 -11.5428
upperneck 5.12126 -15.7842 24.822
head 6.52578 -6.97903 8.20986
rclavicle 7.99332e-015 5.46658e-015
rhumerus 1.94055 39.0138 -45.7064
rradius 71.4562
rwrist -23.3191
rhand -6.68381 -52.1994
rfingers 7.12502
rthumb 19.1749 -81.2742
lclavicle 7.99332e-015 5.46658e-015
lhumerus -40.0879 33.5041 63.5104
lradius 19.8349
lwrist -41.4244
lhand -12.3333 20.2557
lfingers 7.12502
lthumb 13.7358 49.7823
rfemur -27.8127 -8.09154 22.3661
rtibia 57.0212
rfoot -1.93007 -16.3873
rtoes 6.63652
lfemur -12.0556 0.892852 -16.754
ltibia 21.2303
lfoot -9.93949 1.23428
ltoes -0.4506
461
root -7.3392 17.9437 6.04065 87.1032 -87.2068 -83.546
lowerback 0.623019 0.45831 -0.7625
upperback -2.6048 0.61 1.6819
thorax -3.05105 0.333493 2.13758
lowerneck -11.1109 -10.5486 -11.4424
upperneck 5.15953 -15.8294 24.9364
head 6.55076 -6.99449 8.22569
rclavicle 9.41121e-015 5.71506e-015
rhumerus 4.23415 36.8249 -43.448
rradius 72.8372
rwrist -23.3436
rhand -7.30212 -53.3625
rfingers 7.12502
rthumb 18.5802 -82.4952
lclavicle 9.41121e-015 5.71506e-015
lhumerus -39.6145 32.7676 64.213
lradius 20.2587
lwrist -40.3256
lhand -12.5742 20.2484
lfingers 7.12502
lthumb 13.5037 49.7906
rfemur -28.3753 -8.3139 22.2602
rtibia 55.9013
rfoot -2.31023 -16.4109
rtoes 6.62342
lfemur -11.4037 0.791522 -16.9575
ltibia 20.7615
lfoot -10.1238 1.26732
ltoes -0.544697
462
root -7.46006 17.9524 6.05426 83.4773 -87.2807 -79.8663
lowerback 0.646219 0.373809 -0.715609
upperback -2.65648 0.498142 1.69903
thorax -3.11239 0.27705 2.13253
lowerneck -11.1117 -10.5461 -11.3419
upperneck 5.20582 -15.8813 25.0479
head 6.57942 -7.01268 8.23945
rclavicle -4.21486e-015 -2.48481e-015
rhumerus 6.45935 34.3837 -41.4124
rradius 74.1007
rwrist -23.339
rhand -7.99318 -54.5014
rfingers 7.12502
rthumb 17.9154 -83.6962
lclavicle -4.21486e-015 -2.48481e-015
lhumerus -39.1494 32.047 64.9035
lradius 20.6918
lwrist -39.2633
lhand -12.8145 20.2413
lfingers 7.12502
lthumb 13.272 49.7988
rfemur -28.9016 -8.52196 22.1462
rtibia 54.6802
rfoot -2.6626 -16.4123
rtoes 6.61639
lfemur -10.7665 0.681761 -17.1576
ltibia 20.2954
lfoot -10.3049 1.30059
ltoes -0.642649
463
root -7.58053 17.9603 6.06721 79.4962 -87.3395 -75.8217
lowerback 0.665554 0.290232 -0.659697
upperback -2.71035 0.387749 1.71791
thorax -3.17393 0.221077 2.12436
lowerneck -11.1133 -10.5474 -11.2423
upperneck 5.25836 -15.94 25.1578
head 6.61136 -7.03361 8.25179
rclavicle -3.44457e-015 -9.93923e-016
rhumerus 8.60729 31.7158 -39.6227
rradius 75.237
rwrist -23.2891
rhand -8.75209 -55.598
rfingers 7.12502
rthumb 17.1851 -84.8581
lclavicle -3.44457e-015 -9.93923e-016
lhumerus -38.6924 31.3371 65.5848
lradius 21.1352
lwrist -38.2335
lhand -13.0462 20.2455
lfingers 7.12502
lthumb 13.0486 49.8174
rfemur -29.3933 -8.71441 22.0238
rtibia 53.3666
rfoot -2.98241 -16.3933
rtoes 6.60444
lfemur -10.1461 0.564572 -17.3537
ltibia 19.8352
lfoot -10.4844 1.33287
ltoes -0.740286
